<?xml version="1.0" standalone="no"?>
<!DOCTYPE svg PUBLIC "-//W3C//DTD SVG 20010904//EN"
 "http://www.w3.org/TR/2001/REC-SVG-20010904/DTD/svg10.dtd">
<svg version="1.0" xmlns="http://www.w3.org/2000/svg"
 width="1000.000000pt" height="1000.000000pt" viewBox="0 0 1000.000000 1000.000000"
 preserveAspectRatio="xMidYMid meet">
<metadata>
Created by potrace 1.14, written by Peter Selinger 2001-2017
</metadata>
<g transform="translate(0.000000,1000.000000) scale(0.100000,-0.100000)"
fill="#000000" stroke="none">
<path d="M0 5000 l0 -5000 5000 0 5000 0 0 5000 0 5000 -5000 0 -5000 0 0
-5000z m7922 3145 c35 -14 33 -70 -6 -199 -39 -127 -187 -515 -197 -516 -3 0
-29 29 -58 64 -129 160 -377 366 -501 418 -28 11 -50 23 -50 27 0 17 342 146
481 181 146 38 273 47 331 25z m-801 -274 c44 -22 114 -64 157 -93 108 -74
342 -310 431 -436 l73 -102 -33 -83 c-116 -288 -325 -624 -544 -877 -136 -156
-550 -550 -579 -550 -2 0 -33 35 -67 78 -35 42 -66 79 -69 82 -3 3 -40 46 -81
95 -97 114 -279 291 -389 376 -47 36 -148 108 -225 159 -77 51 -142 94 -144
96 -5 4 118 180 202 288 267 345 524 590 842 801 111 74 324 201 344 204 2 1
39 -17 82 -38z m-1627 -1279 l38 -7 -102 -115 c-164 -186 -177 -198 -227 -230
-68 -43 -130 -60 -269 -71 -66 -5 -143 -16 -170 -24 -59 -19 -264 -48 -273
-39 -13 13 166 161 314 261 242 163 523 255 689 225z m274 -113 c75 -51 175
-121 222 -157 125 -97 350 -327 478 -490 l112 -142 -74 -55 c-253 -187 -509
-321 -725 -381 -68 -19 -87 -21 -100 -11 -14 10 -393 339 -428 371 -20 18 10
194 56 334 22 67 67 179 101 249 67 142 199 373 212 373 5 0 70 -41 146 -91z
m-598 -793 c0 -6 -31 -38 -68 -69 -64 -53 -82 -75 -96 -119 -5 -16 -73 -17
-1043 -20 -832 -2 -1044 -6 -1068 -16 -43 -19 -75 -51 -96 -97 -17 -37 -19
-76 -19 -576 l0 -537 -102 -65 c-57 -35 -113 -70 -125 -76 l-23 -12 0 114 c0
124 0 124 111 478 27 85 49 164 49 175 0 32 -37 58 -98 69 l-57 10 -3 273 c-1
168 2 289 8 312 14 50 66 118 110 145 35 20 48 20 1270 25 679 3 1238 4 1243
2 4 -2 7 -9 7 -16z m2167 -7 c53 -25 106 -86 121 -138 7 -23 12 -111 12 -219
l0 -180 -52 -7 c-91 -12 -124 -23 -138 -50 -12 -23 -6 -50 74 -303 49 -152 94
-284 102 -293 10 -11 14 -47 14 -133 l0 -118 -122 4 -123 3 -5 556 -5 555 -25
37 c-13 20 -43 46 -65 59 -37 21 -53 23 -233 26 -188 3 -192 4 -196 25 -3 12
-11 51 -19 87 l-15 65 26 22 c26 22 33 22 316 23 274 0 292 -1 333 -21z
m-1960 -283 c78 -67 110 -101 103 -109 -5 -7 -27 -32 -49 -57 l-40 -45 -28 26
c-15 14 -82 72 -148 130 -66 57 -123 108 -127 114 -16 21 -7 40 39 82 l47 44
45 -44 c25 -24 97 -87 158 -141z m3123 -51 c16 -49 49 -156 74 -237 25 -80 46
-152 46 -160 0 -8 -13 -15 -32 -16 -93 -6 -193 -43 -496 -186 -206 -97 -375
-157 -502 -179 -47 -7 -87 -13 -89 -11 -2 2 -37 108 -78 236 -41 128 -76 240
-79 249 -4 12 13 18 93 33 130 23 267 69 443 151 80 37 198 92 264 122 128 59
241 94 295 90 33 -2 34 -3 61 -92z m-4440 15 l-21 -29 201 -3 c287 -4 633 5
637 17 2 6 -18 9 -52 7 -35 -3 -55 0 -55 7 0 7 -46 11 -141 11 -91 0 -138 4
-134 10 4 6 91 10 228 10 l222 0 -140 -142 c-169 -171 -277 -305 -400 -493
-152 -232 -173 -286 -115 -293 19 -2 53 20 137 88 62 49 115 90 118 90 2 0
-10 -24 -29 -52 -172 -273 -363 -674 -439 -928 l-35 -115 -47 -7 c-51 -7 -145
-49 -165 -73 -11 -13 -16 -13 -44 4 -96 59 -268 80 -372 45 -157 -52 -323
-198 -427 -373 l-26 -45 -3 44 c-4 56 -26 72 -68 48 l-30 -17 0 159 0 158 78
50 c139 89 256 152 312 168 109 32 125 40 138 67 12 25 6 44 -104 288 -64 143
-126 272 -137 286 -19 24 -25 25 -81 21 -36 -3 -92 -18 -134 -36 l-72 -30 2
511 3 512 585 5 c408 3 562 8 508 14 -43 4 -78 12 -78 17 0 5 -90 9 -201 9
-131 0 -198 3 -194 10 4 6 115 10 301 10 l295 0 -21 -30z m3030 15 c48 -25 52
-58 48 -395 l-3 -305 -42 -63 -43 -63 0 -159 0 -158 -62 -21 c-75 -25 -108
-54 -108 -93 0 -26 51 -433 67 -533 7 -47 42 -85 78 -85 l25 0 0 -152 0 -152
-36 60 c-148 247 -445 327 -728 196 -77 -36 -79 -36 -90 -17 -6 11 -30 39 -53
61 -74 75 -204 104 -307 69 -44 -15 -44 -15 -76 15 -39 36 -100 54 -161 47
l-47 -6 -21 55 c-50 131 -65 243 -65 489 -1 244 11 369 60 607 35 174 51 224
79 242 13 9 42 43 65 76 34 51 46 61 83 69 38 10 169 51 208 66 12 4 23 -10
47 -62 63 -136 85 -277 81 -508 -3 -167 2 -194 41 -215 10 -5 34 -10 53 -10
41 0 77 35 174 170 169 236 280 467 323 673 l11 57 138 0 137 0 17 30 c21 35
59 40 107 15z m-1818 -191 c117 -103 215 -188 217 -190 1 -1 -8 -51 -22 -111
-102 -430 -116 -898 -36 -1167 12 -39 28 -84 36 -100 14 -27 13 -32 -10 -80
-47 -95 -44 -142 4 -71 13 19 42 44 65 55 74 36 194 20 194 -26 0 -8 -13 -38
-30 -67 -16 -30 -30 -64 -30 -77 0 -22 4 -20 48 23 96 95 146 121 227 121 70
0 128 -26 169 -74 35 -42 33 -62 -13 -123 -72 -97 -80 -134 -15 -78 39 35 178
127 232 155 18 9 68 26 110 37 72 18 78 18 89 2 23 -30 21 -155 -3 -220 -22
-60 -98 -126 -177 -152 -34 -12 -104 -27 -155 -33 l-92 -11 -25 -56 c-48 -104
-86 -127 -147 -85 -21 15 -46 40 -56 56 -16 27 -32 37 -32 19 0 -18 -94 -113
-131 -131 -54 -28 -123 -26 -178 5 -24 14 -45 24 -45 23 -26 -45 -92 -114
-141 -146 l-63 -42 -1204 2 -1203 3 -22 45 c-37 73 -26 221 25 313 l17 32 5
-85 c5 -79 7 -85 28 -88 33 -5 45 9 78 90 80 203 227 378 382 455 64 32 85 37
160 41 88 4 155 -12 218 -53 l22 -14 -21 -71 c-19 -66 -17 -105 4 -67 6 9 36
50 69 90 66 83 125 118 206 125 46 4 61 -1 143 -43 51 -26 94 -45 97 -42 7 7
-80 95 -120 124 l-30 20 38 119 c103 323 274 669 517 1047 49 76 89 146 89
155 0 20 -18 42 -36 42 -6 0 -69 -47 -140 -104 -71 -57 -131 -102 -133 -100
-12 11 181 268 309 412 65 73 285 282 297 282 2 0 99 -84 215 -186z m1327 124
c-22 -136 -103 -334 -209 -507 -51 -85 -201 -291 -210 -291 -3 0 -6 84 -6 188
-1 151 -5 206 -22 289 -26 119 -25 110 -9 110 43 0 311 149 407 227 30 24 56
43 56 43 1 -1 -2 -28 -7 -59z m-4914 -99 c33 -12 159 -68 280 -124 121 -56
257 -116 303 -134 95 -36 272 -81 321 -81 29 0 33 -3 28 -22 -9 -39 -137 -438
-150 -467 l-12 -28 -80 13 c-159 27 -293 77 -610 227 -186 88 -311 133 -380
138 -55 4 -56 5 -40 47 24 64 135 428 135 444 0 9 5 18 12 20 23 8 135 -11
193 -33z m1422 -926 c3 -10 49 -112 101 -228 51 -115 96 -215 99 -221 2 -7
-13 -14 -39 -18 -64 -10 -208 -83 -374 -188 -211 -134 -257 -160 -364 -213
-88 -43 -286 -113 -294 -104 -12 13 -215 474 -211 478 3 3 42 15 88 28 109 31
308 131 487 244 218 139 308 190 380 215 79 29 118 30 127 7z m5061 -285 c18
-139 33 -258 32 -264 0 -17 -202 -62 -330 -74 -63 -5 -238 -10 -388 -10 -267
0 -388 -11 -444 -41 -21 -11 -20 -12 -53 246 -14 110 -28 214 -31 232 -5 27
-2 33 23 46 65 33 137 40 473 43 351 3 488 15 608 53 31 11 62 19 67 20 6 1
24 -106 43 -251z m-698 -643 l0 -205 -27 0 c-45 0 -90 -34 -103 -77 -11 -35
-10 -159 0 -192 4 -11 -9 -13 -65 -12 -38 2 -71 4 -73 5 -1 2 3 25 9 52 8 33
11 143 10 336 l-2 287 38 4 c21 2 77 4 126 5 l87 2 0 -205z m-4712 -390 c-32
-98 -32 -240 -1 -307 l22 -48 -27 0 c-82 0 -161 54 -198 134 -23 49 -24 59
-24 303 l0 251 123 71 122 70 3 -202 c2 -188 1 -207 -20 -272z m3912 445 c14
-4 -13 -5 -60 -2 -47 2 -87 6 -89 8 -8 7 124 2 149 -6z m57 -16 c-3 -3 -12 -4
-19 -1 -8 3 -5 6 6 6 11 1 17 -2 13 -5z m137 -83 c28 -26 76 -94 76 -108 0 -5
-14 13 -30 40 -17 26 -53 63 -80 83 -28 20 -50 38 -50 40 0 7 53 -28 84 -55z
m106 -175 c15 -46 29 -207 18 -200 -5 3 -8 31 -8 62 0 32 -9 88 -19 126 -20
71 -13 80 9 12z m1108 -146 c2 -60 0 -77 -13 -86 -12 -9 -96 -11 -323 -8 -169
3 -313 7 -319 9 -14 5 -19 119 -7 149 6 15 42 16 333 14 l326 -3 3 -75z m-957
-56 c-5 -16 -10 -23 -10 -15 -1 11 -6 10 -23 -5 -15 -13 -12 -7 7 18 16 20 30
36 32 35 1 -2 -2 -16 -6 -33z m-76 -37 c19 -4 19 -5 -1 -6 -12 0 -28 7 -35 17
-12 15 -12 16 1 6 8 -7 24 -14 35 -17z m55 -36 c0 -5 -20 -20 -44 -32 -40 -20
-116 -87 -149 -131 -6 -9 -25 -20 -42 -23 -28 -5 -28 -5 -6 5 13 6 52 37 85
70 34 33 81 73 106 89 53 35 50 33 50 22z m274 -88 c60 -21 66 -29 66 -94 l0
-59 -35 0 c-18 0 -60 7 -91 15 -59 15 -111 10 -150 -14 -17 -11 -17 -12 -1 -7
52 17 73 18 122 6 l53 -13 -19 -31 c-15 -25 -19 -50 -19 -129 0 -96 1 -99 29
-128 23 -23 39 -29 70 -29 l41 0 0 -64 0 -64 -48 -20 c-108 -47 -229 -34 -329
34 -173 118 -192 381 -39 522 102 94 223 120 350 75z m806 -52 c4 -54 1 -78
-8 -88 -15 -15 -295 -18 -524 -6 l-128 6 0 77 c0 42 3 80 7 83 4 4 151 6 327
5 l321 -3 5 -74z m-1413 -67 c-3 -3 -12 -4 -19 -1 -8 3 -5 6 6 6 11 1 17 -2
13 -5z m-389 -11 c-196 -2 -520 -2 -720 0 -200 1 -39 2 357 2 396 0 559 -1
363 -2z m-3834 -92 c32 -61 36 -75 25 -86 -27 -26 -620 -327 -634 -321 -23 8
-89 146 -76 159 24 24 607 326 626 324 14 -1 32 -25 59 -76z m5501 -96 l0 -80
-330 0 -330 0 -3 69 c-2 38 -1 75 2 83 5 11 64 13 333 11 l328 -3 0 -80z
m-3721 23 c13 -29 36 -65 52 -80 63 -59 56 -58 624 -58 414 0 527 3 553 13 52
23 94 64 122 123 l26 54 571 -2 572 -3 -3 -63 c-5 -115 51 -247 136 -322 l46
-40 -1889 0 -1889 0 0 121 0 121 -33 29 -32 29 -271 0 c-255 0 -271 1 -263 18
4 9 9 38 12 65 l4 47 819 0 819 0 24 -52z m1125 -8 l-31 -50 -464 0 c-505 0
-498 -1 -543 56 -12 15 -21 31 -21 35 0 5 245 9 545 9 l545 0 -31 -50z m129
43 c-15 -2 -42 -2 -60 0 -18 2 -6 4 27 4 33 0 48 -2 33 -4z m-21 -58 c-15 -14
-33 -25 -39 -25 -6 0 4 11 23 24 44 32 51 32 16 1z m-2409 -143 c9 -6 12 -33
10 -98 l-3 -89 -340 -3 c-187 -1 -350 0 -362 3 -22 5 -23 11 -23 86 l0 80 33
14 c25 11 99 14 352 14 176 1 326 -3 333 -7z m5027 -33 c11 -16 8 -150 -2
-160 -5 -5 -144 -8 -329 -7 l-319 3 -3 79 c-2 57 1 82 10 87 20 13 635 11 643
-2z m-5835 -65 c0 -9 -5 -14 -12 -12 -18 6 -21 28 -4 28 9 0 16 -7 16 -16z"/>
<path d="M6806 7409 c-28 -4 -82 -24 -122 -44 -171 -84 -269 -277 -235 -462
28 -151 114 -267 248 -331 75 -36 82 -37 189 -37 107 0 112 1 185 37 237 117
327 391 202 620 -57 105 -192 197 -319 218 -66 11 -79 11 -148 -1z m228 -77
c122 -55 162 -118 172 -272 5 -85 -9 -118 -20 -44 -15 109 -91 206 -194 244
-114 43 -256 10 -333 -77 -59 -68 -74 -110 -74 -208 0 -78 4 -97 27 -140 31
-60 77 -104 138 -136 38 -20 59 -24 142 -24 53 0 94 -3 90 -6 -18 -16 -104
-40 -167 -47 -63 -7 -75 -5 -117 17 -62 31 -133 107 -166 179 -24 50 -27 69
-27 157 0 89 3 107 29 162 44 96 134 174 241 210 61 20 199 12 259 -15z m-66
-139 c7 -10 36 -29 64 -43 61 -30 89 -76 96 -156 8 -101 -43 -195 -131 -239
-138 -68 -309 4 -348 148 -9 33 -7 49 15 109 13 38 22 76 19 85 -3 8 7 27 23
44 27 28 52 40 39 18 -9 -14 74 29 94 48 20 21 111 10 129 -14z"/>
<path d="M8190 5306 c-41 -18 -124 -56 -183 -85 -162 -77 -284 -127 -371 -153
-43 -12 -80 -27 -81 -33 -2 -5 -6 -27 -10 -47 -4 -29 -13 -42 -35 -53 -37 -19
-37 -33 -1 -145 l27 -85 44 -3 c49 -4 68 -15 81 -49 5 -13 15 -26 23 -29 25
-9 223 64 411 153 99 47 209 96 245 110 85 34 90 39 90 84 0 39 15 61 55 84
17 10 16 16 -14 113 l-32 102 -40 0 c-34 0 -47 6 -73 35 -18 19 -39 35 -47 34
-8 0 -48 -15 -89 -33z m173 -90 c33 -6 37 -11 51 -60 20 -68 20 -67 -9 -95
-14 -13 -28 -40 -31 -61 -5 -31 -12 -41 -38 -51 -17 -7 -115 -52 -217 -100
-183 -86 -364 -159 -393 -159 -8 0 -28 13 -44 29 -16 17 -42 33 -58 36 -16 4
-34 8 -40 10 -6 2 -18 29 -27 61 l-16 57 25 26 c14 14 28 38 31 53 7 35 8 36
110 70 78 26 151 58 428 186 l129 60 32 -28 c17 -15 48 -30 67 -34z"/>
<path d="M7050 4594 c0 -8 5 -12 10 -9 6 3 10 10 10 16 0 5 -4 9 -10 9 -5 0
-10 -7 -10 -16z"/>
<path d="M1665 5142 c-6 -4 -18 -19 -28 -34 -15 -24 -24 -28 -62 -28 -24 0
-47 -5 -51 -11 -4 -7 -19 -52 -35 -101 l-28 -90 36 -33 c28 -26 36 -41 36 -67
0 -44 9 -53 74 -78 30 -11 134 -58 231 -104 194 -91 347 -152 410 -162 37 -6
42 -4 51 17 14 37 42 57 86 61 37 3 41 6 56 48 38 102 48 150 36 160 -7 6 -22
18 -34 28 -14 11 -24 31 -26 55 -3 21 -6 40 -8 42 -3 2 -52 19 -110 38 -57 19
-160 60 -227 91 -402 185 -391 180 -407 168z m216 -142 c205 -96 266 -123 383
-165 84 -30 89 -34 102 -71 7 -21 23 -47 35 -57 22 -18 22 -18 4 -76 -16 -55
-20 -60 -53 -66 -21 -4 -50 -21 -70 -41 l-35 -35 -90 31 c-50 17 -190 78 -311
134 -122 57 -229 106 -238 109 -12 4 -18 17 -18 36 0 20 -11 43 -31 65 l-31
36 19 56 c18 55 21 58 66 71 26 8 53 23 60 33 6 11 18 20 25 20 7 0 89 -36
183 -80z"/>
<path d="M2863 4155 c-34 -18 -133 -79 -220 -133 -166 -105 -274 -164 -360
-199 -53 -22 -53 -22 -53 -67 0 -38 -4 -48 -32 -70 l-32 -25 39 -88 c50 -115
50 -114 96 -107 36 6 42 3 73 -30 19 -20 41 -36 49 -36 27 0 242 115 382 204
77 49 176 110 220 134 44 25 82 47 84 49 3 2 4 24 2 50 -2 40 2 50 29 74 l30
28 -23 53 c-63 140 -57 133 -111 135 -41 1 -54 7 -77 32 -15 17 -29 31 -31 31
-2 0 -31 -16 -65 -35z m83 -60 c21 -14 51 -25 70 -25 30 0 35 -5 58 -55 l25
-55 -24 -37 c-16 -22 -25 -50 -25 -73 0 -32 -4 -38 -35 -53 -20 -10 -115 -67
-211 -128 -211 -132 -358 -208 -378 -194 -53 39 -70 47 -103 52 -35 5 -40 10
-61 58 l-23 52 25 38 c14 21 26 50 26 64 1 23 13 32 108 78 59 28 181 98 272
155 153 96 232 145 237 147 1 1 19 -10 39 -24z"/>
<path d="M7885 4138 c-22 -5 -191 -12 -375 -15 -184 -3 -343 -9 -352 -14 -11
-6 -18 -21 -18 -39 0 -31 -30 -70 -54 -70 -30 0 -37 -25 -26 -106 16 -119 17
-123 48 -130 57 -12 63 -16 80 -51 l17 -36 300 2 c290 2 461 13 498 32 11 7
17 22 17 48 0 41 18 63 59 76 23 7 24 9 17 84 -11 129 -15 138 -80 157 -17 5
-37 22 -46 39 -19 34 -29 37 -85 23z m53 -77 c12 -16 37 -34 55 -40 29 -10 35
-18 41 -49 11 -67 7 -85 -24 -111 -17 -14 -37 -44 -45 -66 -12 -37 -16 -40
-62 -48 -26 -4 -186 -8 -354 -10 l-307 -2 -20 32 c-12 17 -37 37 -56 44 -36
13 -36 14 -51 101 -5 33 -3 38 25 55 17 10 38 34 47 54 l16 36 306 7 c256 5
334 10 402 25 3 0 15 -12 27 -28z"/>
</g>
</svg>
